<mxfile host="Electron" modified="2024-05-26T10:43:47.868Z" agent="Mozilla/5.0 (Windows NT 10.0; Win64; x64) AppleWebKit/537.36 (KHTML, like Gecko) draw.io/24.4.8 Chrome/124.0.6367.207 Electron/30.0.6 Safari/537.36" etag="0eZnL9O5_6JwLS387rcd" version="24.4.8" type="device">
  <diagram name="Page-1" id="9bgJEvN5Cah2uBk8s01X">
    <mxGraphModel dx="2726" dy="2071" grid="1" gridSize="10" guides="1" tooltips="1" connect="1" arrows="1" fold="1" page="1" pageScale="1" pageWidth="2336" pageHeight="1654" math="0" shadow="0">
      <root>
        <mxCell id="0" />
        <mxCell id="1" parent="0" />
        <mxCell id="hvKDwUUCQhqAYGG0D7y0-1" value="general regs" style="rounded=0;whiteSpace=wrap;html=1;" vertex="1" parent="1">
          <mxGeometry x="363.75" y="413" width="91.25" height="30" as="geometry" />
        </mxCell>
        <mxCell id="hvKDwUUCQhqAYGG0D7y0-2" value="" style="endArrow=none;html=1;rounded=0;" edge="1" parent="1">
          <mxGeometry width="50" height="50" relative="1" as="geometry">
            <mxPoint x="350" y="743" as="sourcePoint" />
            <mxPoint x="480" y="743" as="targetPoint" />
            <Array as="points">
              <mxPoint x="420" y="743" />
            </Array>
          </mxGeometry>
        </mxCell>
        <mxCell id="hvKDwUUCQhqAYGG0D7y0-3" value="" style="endArrow=none;html=1;rounded=0;" edge="1" parent="1">
          <mxGeometry width="50" height="50" relative="1" as="geometry">
            <mxPoint x="480" y="743" as="sourcePoint" />
            <mxPoint x="525" y="681" as="targetPoint" />
          </mxGeometry>
        </mxCell>
        <mxCell id="hvKDwUUCQhqAYGG0D7y0-4" value="" style="endArrow=none;html=1;rounded=0;" edge="1" parent="1">
          <mxGeometry width="50" height="50" relative="1" as="geometry">
            <mxPoint x="350" y="743" as="sourcePoint" />
            <mxPoint x="305" y="681" as="targetPoint" />
          </mxGeometry>
        </mxCell>
        <mxCell id="hvKDwUUCQhqAYGG0D7y0-5" value="" style="endArrow=none;html=1;rounded=0;" edge="1" parent="1">
          <mxGeometry width="50" height="50" relative="1" as="geometry">
            <mxPoint x="305" y="681" as="sourcePoint" />
            <mxPoint x="375" y="681" as="targetPoint" />
          </mxGeometry>
        </mxCell>
        <mxCell id="hvKDwUUCQhqAYGG0D7y0-6" value="" style="endArrow=none;html=1;rounded=0;" edge="1" parent="1">
          <mxGeometry width="50" height="50" relative="1" as="geometry">
            <mxPoint x="375" y="681" as="sourcePoint" />
            <mxPoint x="415" y="711" as="targetPoint" />
          </mxGeometry>
        </mxCell>
        <mxCell id="hvKDwUUCQhqAYGG0D7y0-7" value="" style="endArrow=none;html=1;rounded=0;" edge="1" parent="1">
          <mxGeometry width="50" height="50" relative="1" as="geometry">
            <mxPoint x="415" y="711" as="sourcePoint" />
            <mxPoint x="455" y="681" as="targetPoint" />
          </mxGeometry>
        </mxCell>
        <mxCell id="hvKDwUUCQhqAYGG0D7y0-8" value="" style="endArrow=classic;html=1;rounded=0;exitX=0.5;exitY=0;exitDx=0;exitDy=0;" edge="1" parent="1" source="hvKDwUUCQhqAYGG0D7y0-16">
          <mxGeometry width="50" height="50" relative="1" as="geometry">
            <mxPoint x="330" y="649.0000000000001" as="sourcePoint" />
            <mxPoint x="330" y="681" as="targetPoint" />
            <Array as="points">
              <mxPoint x="330" y="671" />
            </Array>
          </mxGeometry>
        </mxCell>
        <mxCell id="hvKDwUUCQhqAYGG0D7y0-9" value="" style="endArrow=none;html=1;rounded=0;" edge="1" parent="1">
          <mxGeometry width="50" height="50" relative="1" as="geometry">
            <mxPoint x="455" y="681" as="sourcePoint" />
            <mxPoint x="525" y="681" as="targetPoint" />
          </mxGeometry>
        </mxCell>
        <mxCell id="hvKDwUUCQhqAYGG0D7y0-10" value="" style="endArrow=classic;html=1;rounded=0;exitX=0.45;exitY=0.007;exitDx=0;exitDy=0;exitPerimeter=0;" edge="1" parent="1" source="hvKDwUUCQhqAYGG0D7y0-18">
          <mxGeometry width="50" height="50" relative="1" as="geometry">
            <mxPoint x="475" y="661" as="sourcePoint" />
            <mxPoint x="491" y="681" as="targetPoint" />
          </mxGeometry>
        </mxCell>
        <mxCell id="hvKDwUUCQhqAYGG0D7y0-11" value="ALU" style="text;html=1;align=center;verticalAlign=middle;resizable=0;points=[];autosize=1;strokeColor=none;fillColor=none;" vertex="1" parent="1">
          <mxGeometry x="390" y="710" width="50" height="30" as="geometry" />
        </mxCell>
        <mxCell id="hvKDwUUCQhqAYGG0D7y0-12" value="" style="endArrow=classic;html=1;rounded=0;" edge="1" parent="1">
          <mxGeometry width="50" height="50" relative="1" as="geometry">
            <mxPoint x="330" y="715" as="sourcePoint" />
            <mxPoint x="270" y="715" as="targetPoint" />
          </mxGeometry>
        </mxCell>
        <mxCell id="hvKDwUUCQhqAYGG0D7y0-13" value="&lt;font style=&quot;font-size: 9px;&quot;&gt;flags&lt;/font&gt;" style="text;html=1;align=center;verticalAlign=middle;resizable=0;points=[];autosize=1;strokeColor=none;fillColor=none;" vertex="1" parent="1">
          <mxGeometry x="285" y="710" width="40" height="30" as="geometry" />
        </mxCell>
        <mxCell id="hvKDwUUCQhqAYGG0D7y0-14" value="" style="endArrow=classic;html=1;rounded=0;" edge="1" parent="1">
          <mxGeometry width="50" height="50" relative="1" as="geometry">
            <mxPoint x="560" y="715" as="sourcePoint" />
            <mxPoint x="500" y="715" as="targetPoint" />
          </mxGeometry>
        </mxCell>
        <mxCell id="hvKDwUUCQhqAYGG0D7y0-15" value="&lt;font style=&quot;font-size: 9px;&quot;&gt;operation&lt;/font&gt;" style="text;html=1;align=center;verticalAlign=middle;resizable=0;points=[];autosize=1;strokeColor=none;fillColor=none;" vertex="1" parent="1">
          <mxGeometry x="500" y="710" width="60" height="30" as="geometry" />
        </mxCell>
        <mxCell id="hvKDwUUCQhqAYGG0D7y0-16" value="" style="shape=trapezoid;perimeter=trapezoidPerimeter;whiteSpace=wrap;html=1;fixedSize=1;rotation=-180;rounded=0;shadow=0;" vertex="1" parent="1">
          <mxGeometry x="260" y="619" width="140" height="32" as="geometry" />
        </mxCell>
        <mxCell id="hvKDwUUCQhqAYGG0D7y0-17" value="MUX" style="text;html=1;align=center;verticalAlign=middle;whiteSpace=wrap;rounded=0;" vertex="1" parent="1">
          <mxGeometry x="298.75" y="619" width="60" height="30" as="geometry" />
        </mxCell>
        <mxCell id="hvKDwUUCQhqAYGG0D7y0-18" value="" style="shape=trapezoid;perimeter=trapezoidPerimeter;whiteSpace=wrap;html=1;fixedSize=1;rotation=-180;rounded=0;shadow=0;" vertex="1" parent="1">
          <mxGeometry x="425" y="619" width="120" height="32" as="geometry" />
        </mxCell>
        <mxCell id="hvKDwUUCQhqAYGG0D7y0-19" value="MUX" style="text;html=1;align=center;verticalAlign=middle;whiteSpace=wrap;rounded=0;" vertex="1" parent="1">
          <mxGeometry x="455" y="619" width="60" height="30" as="geometry" />
        </mxCell>
        <mxCell id="hvKDwUUCQhqAYGG0D7y0-20" value="" style="endArrow=classic;html=1;rounded=0;entryX=1;entryY=0.5;entryDx=0;entryDy=0;" edge="1" parent="1" target="hvKDwUUCQhqAYGG0D7y0-16">
          <mxGeometry width="50" height="50" relative="1" as="geometry">
            <mxPoint x="190" y="635" as="sourcePoint" />
            <mxPoint x="260" y="639" as="targetPoint" />
          </mxGeometry>
        </mxCell>
        <mxCell id="hvKDwUUCQhqAYGG0D7y0-21" value="&lt;span style=&quot;text-wrap: wrap; background-color: rgb(251, 251, 251);&quot;&gt;&lt;font style=&quot;font-size: 9px;&quot;&gt;sigAluL&lt;/font&gt;&lt;/span&gt;" style="edgeLabel;html=1;align=center;verticalAlign=middle;resizable=0;points=[];" vertex="1" connectable="0" parent="hvKDwUUCQhqAYGG0D7y0-20">
          <mxGeometry x="-0.1947" relative="1" as="geometry">
            <mxPoint as="offset" />
          </mxGeometry>
        </mxCell>
        <mxCell id="hvKDwUUCQhqAYGG0D7y0-22" value="" style="endArrow=classic;html=1;rounded=0;entryX=0;entryY=0.5;entryDx=0;entryDy=0;" edge="1" parent="1" target="hvKDwUUCQhqAYGG0D7y0-18">
          <mxGeometry width="50" height="50" relative="1" as="geometry">
            <mxPoint x="605" y="635" as="sourcePoint" />
            <mxPoint x="605" y="641" as="targetPoint" />
          </mxGeometry>
        </mxCell>
        <mxCell id="hvKDwUUCQhqAYGG0D7y0-23" value="&lt;font style=&quot;font-size: 9px;&quot;&gt;sigAluR&lt;/font&gt;" style="text;html=1;align=center;verticalAlign=middle;whiteSpace=wrap;rounded=0;" vertex="1" parent="1">
          <mxGeometry x="540" y="603" width="60" height="30" as="geometry" />
        </mxCell>
        <mxCell id="hvKDwUUCQhqAYGG0D7y0-24" value="" style="endArrow=none;html=1;rounded=0;entryX=0.5;entryY=1;entryDx=0;entryDy=0;" edge="1" parent="1" target="hvKDwUUCQhqAYGG0D7y0-1">
          <mxGeometry width="50" height="50" relative="1" as="geometry">
            <mxPoint x="410" y="543" as="sourcePoint" />
            <mxPoint x="487.5" y="493" as="targetPoint" />
          </mxGeometry>
        </mxCell>
        <mxCell id="hvKDwUUCQhqAYGG0D7y0-25" value="" style="endArrow=classic;html=1;rounded=0;entryX=0.75;entryY=1;entryDx=0;entryDy=0;" edge="1" parent="1" target="hvKDwUUCQhqAYGG0D7y0-18">
          <mxGeometry width="50" height="50" relative="1" as="geometry">
            <mxPoint x="410" y="543" as="sourcePoint" />
            <mxPoint x="450" y="603" as="targetPoint" />
            <Array as="points">
              <mxPoint x="455" y="543" />
            </Array>
          </mxGeometry>
        </mxCell>
        <mxCell id="hvKDwUUCQhqAYGG0D7y0-26" value="" style="endArrow=classic;html=1;rounded=0;entryX=0.216;entryY=1.011;entryDx=0;entryDy=0;entryPerimeter=0;" edge="1" parent="1" target="hvKDwUUCQhqAYGG0D7y0-16">
          <mxGeometry width="50" height="50" relative="1" as="geometry">
            <mxPoint x="410" y="543" as="sourcePoint" />
            <mxPoint x="370" y="613" as="targetPoint" />
            <Array as="points">
              <mxPoint x="370" y="543" />
            </Array>
          </mxGeometry>
        </mxCell>
        <mxCell id="hvKDwUUCQhqAYGG0D7y0-27" value="" style="shape=trapezoid;perimeter=trapezoidPerimeter;whiteSpace=wrap;html=1;fixedSize=1;rotation=-180;rounded=0;shadow=0;" vertex="1" parent="1">
          <mxGeometry x="320" y="353" width="177.5" height="32" as="geometry" />
        </mxCell>
        <mxCell id="hvKDwUUCQhqAYGG0D7y0-28" value="MUX" style="text;html=1;align=center;verticalAlign=middle;whiteSpace=wrap;rounded=0;" vertex="1" parent="1">
          <mxGeometry x="378.75" y="353" width="60" height="30" as="geometry" />
        </mxCell>
        <mxCell id="hvKDwUUCQhqAYGG0D7y0-29" value="" style="shape=trapezoid;perimeter=trapezoidPerimeter;whiteSpace=wrap;html=1;fixedSize=1;rotation=-180;rounded=0;shadow=0;" vertex="1" parent="1">
          <mxGeometry x="480" y="263" width="120" height="32" as="geometry" />
        </mxCell>
        <mxCell id="hvKDwUUCQhqAYGG0D7y0-30" value="MUX" style="text;html=1;align=center;verticalAlign=middle;whiteSpace=wrap;rounded=0;" vertex="1" parent="1">
          <mxGeometry x="510" y="264" width="60" height="30" as="geometry" />
        </mxCell>
        <mxCell id="hvKDwUUCQhqAYGG0D7y0-31" value="" style="endArrow=classic;html=1;rounded=0;entryX=0.75;entryY=1;entryDx=0;entryDy=0;" edge="1" parent="1" target="hvKDwUUCQhqAYGG0D7y0-29">
          <mxGeometry width="50" height="50" relative="1" as="geometry">
            <mxPoint x="570" y="160" as="sourcePoint" />
            <mxPoint x="550" y="113" as="targetPoint" />
            <Array as="points">
              <mxPoint x="510" y="160" />
            </Array>
          </mxGeometry>
        </mxCell>
        <mxCell id="hvKDwUUCQhqAYGG0D7y0-32" value="" style="endArrow=classic;html=1;rounded=0;exitX=0.5;exitY=1;exitDx=0;exitDy=0;entryX=0.25;entryY=1;entryDx=0;entryDy=0;" edge="1" parent="1" source="hvKDwUUCQhqAYGG0D7y0-33" target="hvKDwUUCQhqAYGG0D7y0-29">
          <mxGeometry width="50" height="50" relative="1" as="geometry">
            <mxPoint x="580" y="203" as="sourcePoint" />
            <mxPoint x="605" y="255" as="targetPoint" />
          </mxGeometry>
        </mxCell>
        <mxCell id="hvKDwUUCQhqAYGG0D7y0-33" value="bit_mask" style="rounded=0;whiteSpace=wrap;html=1;" vertex="1" parent="1">
          <mxGeometry x="545" y="183" width="50" height="30" as="geometry" />
        </mxCell>
        <mxCell id="hvKDwUUCQhqAYGG0D7y0-34" value="" style="endArrow=classic;html=1;rounded=0;entryX=0.5;entryY=0;entryDx=0;entryDy=0;exitX=-0.003;exitY=0.03;exitDx=0;exitDy=0;exitPerimeter=0;" edge="1" parent="1" source="hvKDwUUCQhqAYGG0D7y0-83" target="hvKDwUUCQhqAYGG0D7y0-33">
          <mxGeometry width="50" height="50" relative="1" as="geometry">
            <mxPoint x="930" y="170" as="sourcePoint" />
            <mxPoint x="584.76" y="170.5" as="targetPoint" />
            <Array as="points">
              <mxPoint x="570" y="160" />
            </Array>
          </mxGeometry>
        </mxCell>
        <mxCell id="hvKDwUUCQhqAYGG0D7y0-35" value="instr" style="edgeLabel;html=1;align=center;verticalAlign=middle;resizable=0;points=[];" vertex="1" connectable="0" parent="hvKDwUUCQhqAYGG0D7y0-34">
          <mxGeometry x="0.324" y="-1" relative="1" as="geometry">
            <mxPoint x="63" as="offset" />
          </mxGeometry>
        </mxCell>
        <mxCell id="hvKDwUUCQhqAYGG0D7y0-36" value="" style="endArrow=classic;html=1;rounded=0;entryX=0.101;entryY=0.999;entryDx=0;entryDy=0;entryPerimeter=0;exitX=0.5;exitY=0;exitDx=0;exitDy=0;" edge="1" parent="1" source="hvKDwUUCQhqAYGG0D7y0-29" target="hvKDwUUCQhqAYGG0D7y0-27">
          <mxGeometry width="50" height="50" relative="1" as="geometry">
            <mxPoint x="524.38" y="244" as="sourcePoint" />
            <mxPoint x="524.38" y="293" as="targetPoint" />
            <Array as="points">
              <mxPoint x="540" y="323" />
              <mxPoint x="480" y="323" />
            </Array>
          </mxGeometry>
        </mxCell>
        <mxCell id="hvKDwUUCQhqAYGG0D7y0-37" value="IOController" style="rounded=0;whiteSpace=wrap;html=1;" vertex="1" parent="1">
          <mxGeometry x="349.37" y="193" width="120" height="60" as="geometry" />
        </mxCell>
        <mxCell id="hvKDwUUCQhqAYGG0D7y0-38" value="" style="endArrow=classic;html=1;rounded=0;exitX=0.5;exitY=1;exitDx=0;exitDy=0;entryX=0.5;entryY=1;entryDx=0;entryDy=0;" edge="1" parent="1" source="hvKDwUUCQhqAYGG0D7y0-37" target="hvKDwUUCQhqAYGG0D7y0-27">
          <mxGeometry width="50" height="50" relative="1" as="geometry">
            <mxPoint x="384.38" y="163" as="sourcePoint" />
            <mxPoint x="384.38" y="243" as="targetPoint" />
          </mxGeometry>
        </mxCell>
        <mxCell id="hvKDwUUCQhqAYGG0D7y0-39" value="" style="endArrow=classic;html=1;rounded=0;entryX=0.75;entryY=1;entryDx=0;entryDy=0;" edge="1" parent="1" target="hvKDwUUCQhqAYGG0D7y0-27">
          <mxGeometry width="50" height="50" relative="1" as="geometry">
            <mxPoint x="420" y="743" as="sourcePoint" />
            <mxPoint x="340" y="303" as="targetPoint" />
            <Array as="points">
              <mxPoint x="420" y="783" />
              <mxPoint x="120" y="783" />
              <mxPoint x="120" y="323" />
              <mxPoint x="364" y="323" />
            </Array>
          </mxGeometry>
        </mxCell>
        <mxCell id="hvKDwUUCQhqAYGG0D7y0-40" value="stack reg" style="rounded=0;whiteSpace=wrap;html=1;" vertex="1" parent="1">
          <mxGeometry x="240" y="545" width="80" height="28" as="geometry" />
        </mxCell>
        <mxCell id="hvKDwUUCQhqAYGG0D7y0-41" value="" style="endArrow=classic;html=1;rounded=0;exitX=0.5;exitY=1;exitDx=0;exitDy=0;entryX=0.75;entryY=1;entryDx=0;entryDy=0;" edge="1" parent="1" source="hvKDwUUCQhqAYGG0D7y0-40">
          <mxGeometry width="50" height="50" relative="1" as="geometry">
            <mxPoint x="465" y="522" as="sourcePoint" />
            <mxPoint x="280" y="619" as="targetPoint" />
          </mxGeometry>
        </mxCell>
        <mxCell id="hvKDwUUCQhqAYGG0D7y0-42" value="" style="endArrow=classic;html=1;rounded=0;entryX=0;entryY=0.5;entryDx=0;entryDy=0;" edge="1" parent="1" target="hvKDwUUCQhqAYGG0D7y0-40">
          <mxGeometry width="50" height="50" relative="1" as="geometry">
            <mxPoint x="150" y="559" as="sourcePoint" />
            <mxPoint x="185.00000000000006" y="563" as="targetPoint" />
          </mxGeometry>
        </mxCell>
        <mxCell id="hvKDwUUCQhqAYGG0D7y0-43" value="&lt;span style=&quot;background-color: rgb(251, 251, 251);&quot;&gt;&lt;font style=&quot;font-size: 9px;&quot;&gt;latch_stack_reg&lt;/font&gt;&lt;/span&gt;" style="edgeLabel;html=1;align=center;verticalAlign=middle;resizable=0;points=[];" vertex="1" connectable="0" parent="hvKDwUUCQhqAYGG0D7y0-42">
          <mxGeometry x="-0.0092" relative="1" as="geometry">
            <mxPoint as="offset" />
          </mxGeometry>
        </mxCell>
        <mxCell id="hvKDwUUCQhqAYGG0D7y0-44" value="" style="endArrow=classic;html=1;rounded=0;exitX=0.5;exitY=0;exitDx=0;exitDy=0;entryX=0.5;entryY=0;entryDx=0;entryDy=0;" edge="1" parent="1" source="hvKDwUUCQhqAYGG0D7y0-45" target="hvKDwUUCQhqAYGG0D7y0-40">
          <mxGeometry width="50" height="50" relative="1" as="geometry">
            <mxPoint x="145" y="516" as="sourcePoint" />
            <mxPoint x="275" y="543" as="targetPoint" />
          </mxGeometry>
        </mxCell>
        <mxCell id="hvKDwUUCQhqAYGG0D7y0-45" value="" style="shape=trapezoid;perimeter=trapezoidPerimeter;whiteSpace=wrap;html=1;fixedSize=1;rotation=-180;rounded=0;shadow=0;" vertex="1" parent="1">
          <mxGeometry x="235" y="483" width="90" height="30" as="geometry" />
        </mxCell>
        <mxCell id="hvKDwUUCQhqAYGG0D7y0-46" value="MUX" style="text;html=1;align=center;verticalAlign=middle;whiteSpace=wrap;rounded=0;" vertex="1" parent="1">
          <mxGeometry x="250" y="483" width="60" height="30" as="geometry" />
        </mxCell>
        <mxCell id="hvKDwUUCQhqAYGG0D7y0-47" value="" style="endArrow=classic;html=1;rounded=0;entryX=0.724;entryY=1.003;entryDx=0;entryDy=0;entryPerimeter=0;" edge="1" parent="1" target="hvKDwUUCQhqAYGG0D7y0-45">
          <mxGeometry width="50" height="50" relative="1" as="geometry">
            <mxPoint x="280" y="593" as="sourcePoint" />
            <mxPoint x="265" y="473" as="targetPoint" />
            <Array as="points">
              <mxPoint x="340" y="593" />
              <mxPoint x="340" y="443" />
              <mxPoint x="260" y="443" />
            </Array>
          </mxGeometry>
        </mxCell>
        <mxCell id="hvKDwUUCQhqAYGG0D7y0-48" value="-1" style="edgeLabel;html=1;align=center;verticalAlign=middle;resizable=0;points=[];" vertex="1" connectable="0" parent="hvKDwUUCQhqAYGG0D7y0-47">
          <mxGeometry x="0.8002" relative="1" as="geometry">
            <mxPoint y="12" as="offset" />
          </mxGeometry>
        </mxCell>
        <mxCell id="hvKDwUUCQhqAYGG0D7y0-49" value="" style="endArrow=classic;html=1;rounded=0;entryX=0.278;entryY=1.011;entryDx=0;entryDy=0;entryPerimeter=0;" edge="1" parent="1" target="hvKDwUUCQhqAYGG0D7y0-45">
          <mxGeometry width="50" height="50" relative="1" as="geometry">
            <mxPoint x="260" y="443" as="sourcePoint" />
            <mxPoint x="290" y="463" as="targetPoint" />
            <Array as="points">
              <mxPoint x="300" y="443" />
            </Array>
          </mxGeometry>
        </mxCell>
        <mxCell id="hvKDwUUCQhqAYGG0D7y0-50" value="+1" style="edgeLabel;html=1;align=center;verticalAlign=middle;resizable=0;points=[];" vertex="1" connectable="0" parent="hvKDwUUCQhqAYGG0D7y0-49">
          <mxGeometry x="0.4719" relative="1" as="geometry">
            <mxPoint as="offset" />
          </mxGeometry>
        </mxCell>
        <mxCell id="hvKDwUUCQhqAYGG0D7y0-51" value="" style="endArrow=classic;html=1;rounded=0;" edge="1" parent="1">
          <mxGeometry width="50" height="50" relative="1" as="geometry">
            <mxPoint x="190" y="498" as="sourcePoint" />
            <mxPoint x="245" y="497.73" as="targetPoint" />
          </mxGeometry>
        </mxCell>
        <mxCell id="hvKDwUUCQhqAYGG0D7y0-52" value="&lt;font style=&quot;font-size: 9px;&quot;&gt;sig_sp&lt;/font&gt;" style="edgeLabel;html=1;align=center;verticalAlign=middle;resizable=0;points=[];" vertex="1" connectable="0" parent="hvKDwUUCQhqAYGG0D7y0-51">
          <mxGeometry x="-0.1003" y="-1" relative="1" as="geometry">
            <mxPoint x="-1" y="-1" as="offset" />
          </mxGeometry>
        </mxCell>
        <mxCell id="hvKDwUUCQhqAYGG0D7y0-53" value="" style="endArrow=classic;html=1;rounded=0;entryX=0.25;entryY=1;entryDx=0;entryDy=0;" edge="1" parent="1" target="hvKDwUUCQhqAYGG0D7y0-54">
          <mxGeometry width="50" height="50" relative="1" as="geometry">
            <mxPoint x="570" y="240" as="sourcePoint" />
            <mxPoint x="710" y="353" as="targetPoint" />
            <Array as="points">
              <mxPoint x="650" y="240" />
              <mxPoint x="650" y="464" />
            </Array>
          </mxGeometry>
        </mxCell>
        <mxCell id="hvKDwUUCQhqAYGG0D7y0-54" value="" style="shape=trapezoid;perimeter=trapezoidPerimeter;whiteSpace=wrap;html=1;fixedSize=1;rotation=90;rounded=0;shadow=0;" vertex="1" parent="1">
          <mxGeometry x="630" y="478" width="120" height="32" as="geometry" />
        </mxCell>
        <mxCell id="hvKDwUUCQhqAYGG0D7y0-55" value="MUX" style="text;html=1;align=center;verticalAlign=middle;whiteSpace=wrap;rounded=0;" vertex="1" parent="1">
          <mxGeometry x="660" y="478" width="60" height="30" as="geometry" />
        </mxCell>
        <mxCell id="hvKDwUUCQhqAYGG0D7y0-56" value="" style="endArrow=classic;html=1;rounded=0;entryX=0.75;entryY=1;entryDx=0;entryDy=0;" edge="1" parent="1" target="hvKDwUUCQhqAYGG0D7y0-54">
          <mxGeometry width="50" height="50" relative="1" as="geometry">
            <mxPoint x="410" y="523" as="sourcePoint" />
            <mxPoint x="620" y="433" as="targetPoint" />
            <Array as="points">
              <mxPoint x="620" y="523" />
            </Array>
          </mxGeometry>
        </mxCell>
        <mxCell id="hvKDwUUCQhqAYGG0D7y0-57" value="" style="endArrow=classic;html=1;rounded=0;exitX=0.5;exitY=0;exitDx=0;exitDy=0;entryX=-0.007;entryY=0.536;entryDx=0;entryDy=0;entryPerimeter=0;" edge="1" parent="1" source="hvKDwUUCQhqAYGG0D7y0-54" target="hvKDwUUCQhqAYGG0D7y0-83">
          <mxGeometry width="50" height="50" relative="1" as="geometry">
            <mxPoint x="645.63" y="621.39" as="sourcePoint" />
            <mxPoint x="794.3699999999999" y="493" as="targetPoint" />
          </mxGeometry>
        </mxCell>
        <mxCell id="hvKDwUUCQhqAYGG0D7y0-58" value="to data_reg" style="edgeLabel;html=1;align=center;verticalAlign=middle;resizable=0;points=[];" vertex="1" connectable="0" parent="hvKDwUUCQhqAYGG0D7y0-57">
          <mxGeometry x="-0.1638" relative="1" as="geometry">
            <mxPoint as="offset" />
          </mxGeometry>
        </mxCell>
        <mxCell id="hvKDwUUCQhqAYGG0D7y0-59" value="" style="endArrow=classic;html=1;rounded=0;entryX=0.5;entryY=0;entryDx=0;entryDy=0;exitX=0.5;exitY=0;exitDx=0;exitDy=0;" edge="1" parent="1" source="hvKDwUUCQhqAYGG0D7y0-27" target="hvKDwUUCQhqAYGG0D7y0-1">
          <mxGeometry width="50" height="50" relative="1" as="geometry">
            <mxPoint x="410" y="363" as="sourcePoint" />
            <mxPoint x="480" y="413" as="targetPoint" />
          </mxGeometry>
        </mxCell>
        <mxCell id="hvKDwUUCQhqAYGG0D7y0-60" value="" style="endArrow=classic;html=1;rounded=0;entryX=1;entryY=0.5;entryDx=0;entryDy=0;" edge="1" parent="1" target="hvKDwUUCQhqAYGG0D7y0-29">
          <mxGeometry width="50" height="50" relative="1" as="geometry">
            <mxPoint x="425" y="279" as="sourcePoint" />
            <mxPoint x="288.75" y="253" as="targetPoint" />
          </mxGeometry>
        </mxCell>
        <mxCell id="hvKDwUUCQhqAYGG0D7y0-61" value="&lt;span style=&quot;text-wrap: wrap; background-color: rgb(251, 251, 251);&quot;&gt;&lt;font style=&quot;font-size: 9px;&quot;&gt;sig_instr&lt;/font&gt;&lt;/span&gt;" style="edgeLabel;html=1;align=center;verticalAlign=middle;resizable=0;points=[];" vertex="1" connectable="0" parent="hvKDwUUCQhqAYGG0D7y0-60">
          <mxGeometry x="-0.0368" relative="1" as="geometry">
            <mxPoint as="offset" />
          </mxGeometry>
        </mxCell>
        <mxCell id="hvKDwUUCQhqAYGG0D7y0-62" value="" style="endArrow=classic;html=1;rounded=0;entryX=1;entryY=0.5;entryDx=0;entryDy=0;" edge="1" parent="1" target="hvKDwUUCQhqAYGG0D7y0-1">
          <mxGeometry width="50" height="50" relative="1" as="geometry">
            <mxPoint x="570" y="428" as="sourcePoint" />
            <mxPoint x="455" y="367.78999999999996" as="targetPoint" />
          </mxGeometry>
        </mxCell>
        <mxCell id="hvKDwUUCQhqAYGG0D7y0-63" value="&lt;span style=&quot;background-color: rgb(251, 251, 251);&quot;&gt;&lt;font style=&quot;font-size: 9px;&quot;&gt;latch_general_reg&lt;/font&gt;&lt;/span&gt;" style="edgeLabel;html=1;align=center;verticalAlign=middle;resizable=0;points=[];" vertex="1" connectable="0" parent="hvKDwUUCQhqAYGG0D7y0-62">
          <mxGeometry x="0.0245" y="1" relative="1" as="geometry">
            <mxPoint as="offset" />
          </mxGeometry>
        </mxCell>
        <mxCell id="hvKDwUUCQhqAYGG0D7y0-64" value="" style="endArrow=classic;html=1;rounded=0;entryX=0.942;entryY=0.474;entryDx=0;entryDy=0;entryPerimeter=0;" edge="1" parent="1">
          <mxGeometry width="50" height="50" relative="1" as="geometry">
            <mxPoint x="200" y="370" as="sourcePoint" />
            <mxPoint x="332" y="370" as="targetPoint" />
          </mxGeometry>
        </mxCell>
        <mxCell id="hvKDwUUCQhqAYGG0D7y0-65" value="&lt;font style=&quot;font-size: 9px;&quot;&gt;sig_general_reg&lt;/font&gt;" style="text;html=1;align=center;verticalAlign=middle;resizable=0;points=[];autosize=1;strokeColor=none;fillColor=none;" vertex="1" parent="1">
          <mxGeometry x="215" y="343" width="90" height="30" as="geometry" />
        </mxCell>
        <mxCell id="hvKDwUUCQhqAYGG0D7y0-66" value="" style="endArrow=classic;html=1;rounded=0;entryX=0;entryY=0.5;entryDx=0;entryDy=0;" edge="1" parent="1" target="hvKDwUUCQhqAYGG0D7y0-54">
          <mxGeometry width="50" height="50" relative="1" as="geometry">
            <mxPoint x="689.63" y="400" as="sourcePoint" />
            <mxPoint x="717.42" y="585.71" as="targetPoint" />
          </mxGeometry>
        </mxCell>
        <mxCell id="hvKDwUUCQhqAYGG0D7y0-67" value="&lt;span style=&quot;text-wrap: wrap; background-color: rgb(251, 251, 251);&quot;&gt;&lt;font style=&quot;font-size: 9px;&quot;&gt;sig_reg_write&lt;/font&gt;&lt;/span&gt;" style="edgeLabel;html=1;align=center;verticalAlign=middle;resizable=0;points=[];" vertex="1" connectable="0" parent="hvKDwUUCQhqAYGG0D7y0-66">
          <mxGeometry x="-0.0106" relative="1" as="geometry">
            <mxPoint as="offset" />
          </mxGeometry>
        </mxCell>
        <mxCell id="hvKDwUUCQhqAYGG0D7y0-68" value="" style="endArrow=classic;html=1;rounded=0;entryX=0.511;entryY=0;entryDx=0;entryDy=0;entryPerimeter=0;" edge="1" parent="1" target="hvKDwUUCQhqAYGG0D7y0-69">
          <mxGeometry width="50" height="50" relative="1" as="geometry">
            <mxPoint x="420" y="783" as="sourcePoint" />
            <mxPoint x="420" y="810" as="targetPoint" />
          </mxGeometry>
        </mxCell>
        <mxCell id="hvKDwUUCQhqAYGG0D7y0-69" value="Control Unit" style="rounded=0;whiteSpace=wrap;html=1;fillColor=none;dashed=1;" vertex="1" parent="1">
          <mxGeometry x="363.75" y="812" width="110" height="30" as="geometry" />
        </mxCell>
        <mxCell id="hvKDwUUCQhqAYGG0D7y0-70" value="" style="endArrow=classic;html=1;rounded=0;" edge="1" parent="1">
          <mxGeometry width="50" height="50" relative="1" as="geometry">
            <mxPoint x="130" y="220" as="sourcePoint" />
            <mxPoint x="300" y="220" as="targetPoint" />
          </mxGeometry>
        </mxCell>
        <mxCell id="hvKDwUUCQhqAYGG0D7y0-71" value="&lt;b style=&quot;&quot;&gt;&lt;font style=&quot;font-size: 15px;&quot;&gt;from general_regs&lt;/font&gt;&lt;/b&gt;" style="edgeLabel;html=1;align=center;verticalAlign=middle;resizable=0;points=[];" vertex="1" connectable="0" parent="hvKDwUUCQhqAYGG0D7y0-70">
          <mxGeometry x="0.0098" relative="1" as="geometry">
            <mxPoint as="offset" />
          </mxGeometry>
        </mxCell>
        <mxCell id="hvKDwUUCQhqAYGG0D7y0-72" value="" style="endArrow=classic;html=1;rounded=0;startArrow=none;startFill=0;endFill=1;" edge="1" parent="1">
          <mxGeometry width="50" height="50" relative="1" as="geometry">
            <mxPoint x="410" y="483" as="sourcePoint" />
            <mxPoint x="540" y="483" as="targetPoint" />
          </mxGeometry>
        </mxCell>
        <mxCell id="hvKDwUUCQhqAYGG0D7y0-73" value="&lt;b&gt;&lt;font style=&quot;font-size: 15px;&quot;&gt;to IOController&lt;/font&gt;&lt;/b&gt;" style="edgeLabel;html=1;align=center;verticalAlign=middle;resizable=0;points=[];" vertex="1" connectable="0" parent="hvKDwUUCQhqAYGG0D7y0-72">
          <mxGeometry x="-0.1629" relative="1" as="geometry">
            <mxPoint x="6" as="offset" />
          </mxGeometry>
        </mxCell>
        <mxCell id="hvKDwUUCQhqAYGG0D7y0-74" value="" style="endArrow=none;dashed=1;html=1;strokeWidth=1;rounded=0;strokeColor=#B5B5B5;" edge="1" parent="1">
          <mxGeometry width="50" height="50" relative="1" as="geometry">
            <mxPoint x="540" y="483" as="sourcePoint" />
            <mxPoint x="130" y="220" as="targetPoint" />
            <Array as="points">
              <mxPoint x="580" y="483" />
              <mxPoint x="580" y="310" />
              <mxPoint x="130" y="310" />
            </Array>
          </mxGeometry>
        </mxCell>
        <mxCell id="hvKDwUUCQhqAYGG0D7y0-75" value="" style="endArrow=classic;html=1;rounded=0;entryX=-0.002;entryY=0.969;entryDx=0;entryDy=0;entryPerimeter=0;" edge="1" parent="1" target="hvKDwUUCQhqAYGG0D7y0-83">
          <mxGeometry width="50" height="50" relative="1" as="geometry">
            <mxPoint x="420" y="783" as="sourcePoint" />
            <mxPoint x="950" y="770" as="targetPoint" />
            <Array as="points" />
          </mxGeometry>
        </mxCell>
        <mxCell id="hvKDwUUCQhqAYGG0D7y0-76" value="to addres_reg" style="edgeLabel;html=1;align=center;verticalAlign=middle;resizable=0;points=[];" vertex="1" connectable="0" parent="hvKDwUUCQhqAYGG0D7y0-75">
          <mxGeometry x="-0.0209" y="1" relative="1" as="geometry">
            <mxPoint x="53" as="offset" />
          </mxGeometry>
        </mxCell>
        <mxCell id="hvKDwUUCQhqAYGG0D7y0-77" value="" style="endArrow=classic;html=1;rounded=0;entryX=0.25;entryY=1;entryDx=0;entryDy=0;startArrow=none;startFill=0;jumpStyle=arc;jumpSize=14;" edge="1" parent="1" target="hvKDwUUCQhqAYGG0D7y0-18">
          <mxGeometry width="50" height="50" relative="1" as="geometry">
            <mxPoint x="620" y="240" as="sourcePoint" />
            <mxPoint x="600" y="410" as="targetPoint" />
            <Array as="points">
              <mxPoint x="620" y="500" />
              <mxPoint x="515" y="500" />
            </Array>
          </mxGeometry>
        </mxCell>
        <mxCell id="hvKDwUUCQhqAYGG0D7y0-78" value="" style="shape=trapezoid;perimeter=trapezoidPerimeter;whiteSpace=wrap;html=1;fixedSize=1;rotation=90;rounded=0;shadow=0;" vertex="1" parent="1">
          <mxGeometry x="268.75" y="208" width="90" height="30" as="geometry" />
        </mxCell>
        <mxCell id="hvKDwUUCQhqAYGG0D7y0-79" value="MUX" style="text;html=1;align=center;verticalAlign=middle;whiteSpace=wrap;rounded=0;" vertex="1" parent="1">
          <mxGeometry x="283.75" y="208" width="60" height="30" as="geometry" />
        </mxCell>
        <mxCell id="hvKDwUUCQhqAYGG0D7y0-80" value="" style="endArrow=classic;html=1;rounded=0;entryX=0;entryY=0.5;entryDx=0;entryDy=0;" edge="1" parent="1" target="hvKDwUUCQhqAYGG0D7y0-78">
          <mxGeometry width="50" height="50" relative="1" as="geometry">
            <mxPoint x="314" y="130" as="sourcePoint" />
            <mxPoint x="105" y="267.73" as="targetPoint" />
          </mxGeometry>
        </mxCell>
        <mxCell id="hvKDwUUCQhqAYGG0D7y0-81" value="&lt;font style=&quot;font-size: 9px;&quot;&gt;sig_reg_wr_io&lt;/font&gt;" style="edgeLabel;html=1;align=center;verticalAlign=middle;resizable=0;points=[];" vertex="1" connectable="0" parent="hvKDwUUCQhqAYGG0D7y0-80">
          <mxGeometry x="-0.1003" y="-1" relative="1" as="geometry">
            <mxPoint x="-1" y="-1" as="offset" />
          </mxGeometry>
        </mxCell>
        <mxCell id="hvKDwUUCQhqAYGG0D7y0-82" value="" style="endArrow=classic;html=1;rounded=0;exitX=0.5;exitY=0;exitDx=0;exitDy=0;entryX=0;entryY=0.5;entryDx=0;entryDy=0;" edge="1" parent="1" source="hvKDwUUCQhqAYGG0D7y0-78" target="hvKDwUUCQhqAYGG0D7y0-37">
          <mxGeometry width="50" height="50" relative="1" as="geometry">
            <mxPoint x="330" y="270" as="sourcePoint" />
            <mxPoint x="410" y="190" as="targetPoint" />
          </mxGeometry>
        </mxCell>
        <mxCell id="hvKDwUUCQhqAYGG0D7y0-83" value="&lt;font style=&quot;font-size: 19px;&quot;&gt;Middlewate&lt;/font&gt;" style="rounded=0;whiteSpace=wrap;html=1;fillColor=none;dashed=1;" vertex="1" parent="1">
          <mxGeometry x="810" y="140" width="110" height="660" as="geometry" />
        </mxCell>
      </root>
    </mxGraphModel>
  </diagram>
</mxfile>
